<?xml version="1.0" ?><!-- Uploaded to: SVG Repo, www.svgrepo.com, Generator: SVG Repo Mixer Tools -->
<svg width="800px" height="800px" viewBox="0 0 64 64" id="Flat" xmlns="http://www.w3.org/2000/svg"><rect height="58" style="fill:#f4b1cc" width="16" x="5" y="3"/><rect height="50" style="fill:#f3e7da" width="12" x="31" y="11"/><rect height="56" style="fill:#ac8168" width="16" x="43" y="5"/><rect height="54" style="fill:#a3b75c" width="10" x="21" y="7"/><rect height="4" style="fill:#ef4037" width="54" x="5" y="30"/><rect height="14" style="fill:#c7b299" width="4" x="49" y="9"/><path d="M37,24a1,1,0,0,1-1-1V15a1,1,0,0,1,2,0v8A1,1,0,0,1,37,24Z" style="fill:#a3b75c"/><path d="M55,52H47a1,1,0,0,1,0-2h8a1,1,0,0,1,0,2Z" style="fill:#f3e7da"/><path d="M55,56H47a1,1,0,0,1,0-2h8a1,1,0,0,1,0,2Z" style="fill:#f3e7da"/><path d="M27,12H25a1,1,0,0,1,0-2h2a1,1,0,0,1,0,2Z" style="fill:#fff"/><path d="M27,16H25a1,1,0,0,1,0-2h2a1,1,0,0,1,0,2Z" style="fill:#fff"/><path d="M17,8H9A1,1,0,0,1,9,6h8a1,1,0,0,1,0,2Z" style="fill:#f3e7da"/><circle cx="13" cy="15" r="4" style="fill:#c7b299"/><path d="M13,58a1,1,0,0,1-1-1V41a1,1,0,0,1,2,0V57A1,1,0,0,1,13,58Z" style="fill:#ac8168"/><circle cx="37" cy="55" r="2" style="fill:#a3b75c"/><path d="M27,58H25a1,1,0,0,1,0-2h2a1,1,0,0,1,0,2Z" style="fill:#fff"/><path d="M27,54H25a1,1,0,0,1,0-2h2a1,1,0,0,1,0,2Z" style="fill:#fff"/><path d="M45,32c0-3.314-1.791-6-4-6s-8,6-8,6,5.791,6,8,6S45,35.314,45,32Z" style="fill:#c1272d"/><path d="M31,32s-5.791-6-8-6-4,2.686-4,6,1.791,6,4,6S31,32,31,32Z" style="fill:#c1272d"/><path d="M39,33H25a1,1,0,0,1,0-2H39a1,1,0,0,1,0,2Z" style="fill:#a32d1e"/><circle cx="32" cy="32" r="3" style="fill:#ef4037"/></svg>